<svg xmlns="http://www.w3.org/2000/svg" width="18" height="18">
<path fill="#EA4335" d="M9 7.4v3.4h4.8c-.2 1.1-1.3 3.2-4.8 3.2A5 5 0 014 9a5 5 0 015-5c1.9 0 3.2.8 4 1.6l-1.6 1.5A3.7 3.7 0 009 5.7 3.3 3.3 0 005.7 9 3.3 3.3 0 009 12.3c2.2 0 3.1-1.6 3.2-2.4H9z"/>
<path fill="#34A853" d="M2.9 6.8l2.1 1.5A3.3 3.3 0 015.7 9c0 .6.2 1.2.4 1.7L3.9 12.3A5 5 0 012.5 9c0-.8.2-1.5.4-2.2z"/>
<path fill="#FBBC05" d="M9 14c1.2 0 2.1-.4 2.8-1l2 1.5A5 5 0 019 16.5 5 5 0 013.9 12.3l2.2-1.6A3.3 3.3 0 009 14z"/>
<path fill="#4285F4" d="M16.2 9c0-.3 0-.6-.1-.9H9v1.9h4.8c-.1.6-.5 1.3-1.2 1.8l2 1.5c1.2-1.1 1.9-2.7 1.9-4.3z"/>
</svg>