<svg xmlns="http://www.w3.org/2000/svg" width="18" height="18" fill="none">
<path d="M9 11.3a2.3 2.3 0 100-4.6 2.3 2.3 0 000 4.6z" stroke="#9FB0C8" stroke-width="2"/>
<path d="M15.5 9a6.6 6.6 0 01-.1 1l1.8 1.1-1.8 3.1-2.1-.8c-.5.4-1.1.8-1.7 1l-.3 2.2H7l-.3-2.2c-.6-.2-1.2-.6-1.7-1l-2.1.8-1.8-3.1L2.9 10A6.6 6.6 0 013 9c0-.3 0-.7.1-1L1.3 6.9l1.8-3.1 2.1.8c.5-.4 1.1-.8 1.7-1L7.2 1.4h3.6l.3 2.2c.6.2 1.2.6 1.7 1l2.1-.8 1.8 3.1-1.8 1.1c.1.3.1.7.1 1z" stroke="#9FB0C8" stroke-width="2" stroke-linecap="round" stroke-linejoin="round"/></svg>